<?xml version="1.0"?><svg width="704px" height="183px" xmlns="http://www.w3.org/2000/svg" xmlns:xlink="http://www.w3.org/1999/xlink"><g><path d="M498,33L652,33C652,15 652,0 652,0L703,48L652,96C652,96 652,82 652,65L498,65ZM652,0C652,0 652,0 652,0Z" style="fill: rgba(251, 0, 117, 1.000000);" fill="#ff0187" stroke="none"/></g><g><path d="M695,115L541,115C541,97 541,82 541,82L490,130L541,178C541,178 541,164 541,147L695,147ZM541,82C541,82 541,82 541,82Z" style="fill: rgba(251, 0, 117, 1.000000);" fill="#ff0187" stroke="none"/></g><g><path d="M0,1L0,179L40,179L40,102L112,102L112,179L151,179L151,1L112,1L112,69L40,69L40,1ZM303,179L303,50L268,50L268,118C268,131 265,140 261,146C257,152 250,155 240,155C231,155 226,152 222,147C219,141 217,133 217,123L217,50L182,50L182,129C182,137 182,145 184,151C185,158 188,163 191,168C195,172 200,176 206,179C212,181 219,182 229,182C237,182 244,181 251,177C258,174 264,169 269,161L269,161L269,179ZM330,50L330,179L366,179L366,121C366,115 366,110 367,105C368,99 370,95 373,91C376,88 379,85 384,83C389,80 394,79 401,79C403,79 405,79 407,80C410,80 412,80 413,81L413,48C410,47 408,46 406,46C401,46 397,47 393,48C388,50 384,51 381,54C377,56 374,59 371,63C368,66 366,70 364,74L364,74L364,50ZM428,1L428,179L464,179L464,1Z" style="fill: rgba(38, 38, 38, 1.000000); stroke-width: 0.000000px; stroke: rgba(0, 0, 0, 1.000000);" fill="#333233" stroke="#000000" stroke-width="0.000000"/></g></svg>