<?xml version="1.0"?><svg width="284px" height="284px" xmlns="http://www.w3.org/2000/svg" xmlns:xlink="http://www.w3.org/1999/xlink"><g><path d="M40,87L194,87C194,69 194,54 194,54L245,102L194,150C194,150 194,136 194,119L40,119ZM194,54C194,54 194,54 194,54Z" style="fill: rgba(251, 0, 117, 1.000000);" fill="#ff0187" stroke="none"/></g><g><path d="M237,169L83,169C83,151 83,136 83,136L32,184L83,232C83,232 83,218 83,201L237,201ZM83,136C83,136 83,136 83,136Z" style="fill: rgba(251, 0, 117, 1.000000);" fill="#ff0187" stroke="none"/></g></svg>